<mxfile host="app.diagrams.net" modified="2023-08-28T08:02:51.371Z" agent="Mozilla/5.0 (X11; Linux x86_64) AppleWebKit/537.36 (KHTML, like Gecko) Chrome/115.0.0.0 Safari/537.36" version="21.6.8" etag="onoUjjxZsGIcdI_jN9cK" type="github">
  <diagram name="Page-1" id="3aW2vprwUOZJ4ccp3iVw">
    <mxGraphModel>
      <root>
        <mxCell id="0" />
        <mxCell id="1" parent="0" />
      </root>
    </mxGraphModel>
  </diagram>
</mxfile>
